<?xml version="1.0" encoding="UTF-8" standalone="no"?>
<svg
   xmlns:osb="http://www.openswatchbook.org/uri/2009/osb"
   xmlns:dc="http://purl.org/dc/elements/1.1/"
   xmlns:cc="http://creativecommons.org/ns#"
   xmlns:rdf="http://www.w3.org/1999/02/22-rdf-syntax-ns#"
   xmlns:svg="http://www.w3.org/2000/svg"
   xmlns="http://www.w3.org/2000/svg"
   xmlns:sodipodi="http://sodipodi.sourceforge.net/DTD/sodipodi-0.dtd"
   xmlns:inkscape="http://www.inkscape.org/namespaces/inkscape"
   sodipodi:docname="ffsplit.svg"
   inkscape:version="1.0 (4035a4fb49, 2020-05-01)"
   id="svg8"
   version="1.1"
   viewBox="0 0 210 297"
   height="297mm"
   width="210mm">
  <defs
     id="defs2">
    <linearGradient
       osb:paint="solid"
       id="linearGradient4301">
      <stop
         id="stop4299"
         offset="0"
         style="stop-color:#b3d2ed;stop-opacity:1;" />
    </linearGradient>
    <marker
       inkscape:isstock="true"
       style="overflow:visible;"
       id="Arrow1Mend"
       refX="0.0"
       refY="0.0"
       orient="auto"
       inkscape:stockid="Arrow1Mend">
      <path
         transform="scale(0.4) rotate(180) translate(10,0)"
         style="fill-rule:evenodd;stroke:#b3d2ed;stroke-width:1pt;stroke-opacity:1;fill:#87a1fd;fill-opacity:1"
         d="M 0.0,0.0 L 5.0,-5.0 L -12.5,0.0 L 5.0,5.0 L 0.0,0.0 z "
         id="path3956" />
    </marker>
    <marker
       inkscape:isstock="true"
       style="overflow:visible"
       id="marker4225"
       refX="0.0"
       refY="0.0"
       orient="auto"
       inkscape:stockid="Arrow1Lstart">
      <path
         transform="scale(0.8) translate(12.5,0)"
         style="fill-rule:evenodd;stroke:#b3d2ed;stroke-width:1pt;stroke-opacity:1;fill:#87a1fd;fill-opacity:1"
         d="M 0.0,0.0 L 5.0,-5.0 L -12.5,0.0 L 5.0,5.0 L 0.0,0.0 z "
         id="path4223" />
    </marker>
    <marker
       inkscape:isstock="true"
       style="overflow:visible"
       id="Arrow1Lstart"
       refX="0.0"
       refY="0.0"
       orient="auto"
       inkscape:stockid="Arrow1Lstart">
      <path
         transform="scale(0.8) translate(12.5,0)"
         style="fill-rule:evenodd;stroke:#b3d2ed;stroke-width:1pt;stroke-opacity:1;fill:#87a1fd;fill-opacity:1"
         d="M 0.0,0.0 L 5.0,-5.0 L -12.5,0.0 L 5.0,5.0 L 0.0,0.0 z "
         id="path3947" />
    </marker>
    <linearGradient
       osb:paint="solid"
       id="linearGradient2807">
      <stop
         id="stop2805"
         offset="0"
         style="stop-color:#5bbad6;stop-opacity:1;" />
    </linearGradient>
    <filter
       height="1.57111"
       y="-0.28555501"
       width="1.5711501"
       x="-0.28557506"
       id="filter3943"
       style="color-interpolation-filters:sRGB"
       inkscape:collect="always">
      <feGaussianBlur
         id="feGaussianBlur3945"
         stdDeviation="44.757356"
         inkscape:collect="always" />
    </filter>
  </defs>
  <sodipodi:namedview
     inkscape:window-maximized="1"
     inkscape:window-y="42"
     inkscape:window-x="0"
     inkscape:window-height="1008"
     inkscape:window-width="1920"
     showgrid="false"
     inkscape:document-rotation="0"
     inkscape:current-layer="layer1"
     inkscape:document-units="mm"
     inkscape:cy="561.25984"
     inkscape:cx="396.85039"
     inkscape:zoom="0.66724888"
     inkscape:pageshadow="2"
     inkscape:pageopacity="0.0"
     borderopacity="1.0"
     bordercolor="#666666"
     pagecolor="#ffffff"
     id="base" />
  <metadata
     id="metadata5">
    <rdf:RDF>
      <cc:Work
         rdf:about="">
        <dc:format>image/svg+xml</dc:format>
        <dc:type
           rdf:resource="http://purl.org/dc/dcmitype/StillImage" />
        <dc:title></dc:title>
      </cc:Work>
    </rdf:RDF>
  </metadata>
  <g
     id="layer1"
     inkscape:groupmode="layer"
     inkscape:label="Layer 1">
    <text
       transform="scale(1.0480396,0.95416243)"
       id="text835"
       y="194.23235"
       x="47.795231"
       style="font-style:normal;font-variant:normal;font-weight:normal;font-stretch:normal;font-size:153.897px;line-height:1.25;font-family:D050000L;-inkscape-font-specification:D050000L;letter-spacing:0px;word-spacing:0px;fill:#87a1fd;fill-opacity:1;stroke:none;stroke-width:1.80348;"
       xml:space="preserve"><tspan
         style="font-style:normal;font-variant:normal;font-weight:normal;font-stretch:normal;font-size:153.897px;font-family:D050000L;-inkscape-font-specification:D050000L;stroke-width:1.80348;fill:#87a1fd;fill-opacity:1;"
         y="194.23235"
         x="47.795231"
         id="tspan833"
         sodipodi:role="line">f</tspan></text>
    <path
       transform="scale(0.26458333)"
       id="path847"
       d="m 390.98575,671.03897 c 0.92569,-24.66529 0.77741,-28.61075 -1.02238,-27.2016 -1.15782,0.90651 -11.76025,9.59537 -23.56096,19.30856 -11.80071,9.7132 -21.96311,17.06445 -22.58312,16.3361 -0.62,-0.72835 -4.69982,-5.96148 -9.06625,-11.62917 l -7.93898,-10.30488 33.25409,-33.27875 33.25408,-33.27874 -0.48395,-32.35307 c -0.26618,-17.79417 -0.91701,-32.78474 -1.44627,-33.31236 -0.80015,-0.79764 -56.34192,26.22484 -62.38807,30.35337 -1.04722,0.71509 -8.58979,20.03458 -16.76127,42.9322 -8.17147,22.89763 -15.17936,41.95419 -15.57309,42.34792 -0.39372,0.39372 -7.39937,0.15725 -15.56811,-0.52546 l -14.85226,-1.24131 6.43086,-26.97644 c 3.53698,-14.83704 6.28301,-27.47083 6.10229,-28.07508 -0.18071,-0.60425 -12.09901,5.60305 -26.48512,13.79399 -16.66111,9.48627 -26.74464,14.40457 -27.77653,13.54819 -0.89099,-0.73947 -3.1692,-4.10093 -5.06269,-7.46994 l -3.4427,-6.12547 26.72316,-12.90589 c 14.69774,-7.09823 27.00417,-13.14751 27.34762,-13.44284 1.44876,-1.24577 -2.37769,-2.57746 -27.81043,-9.67865 -14.7218,-4.11054 -27.62515,-7.76638 -28.67412,-8.12411 -1.34895,-0.46002 -0.0916,-4.27949 4.29562,-13.04865 3.41155,-6.81905 6.37603,-12.59365 6.58773,-12.83248 0.21171,-0.23884 21.93137,3.76177 48.26592,8.89023 l 47.88101,9.32447 31.73984,-17.06467 c 17.45692,-9.38555 31.72856,-17.43262 31.71476,-17.88238 -0.0135,-0.44974 -14.34502,-8.35119 -31.84718,-17.55877 l -31.82211,-16.74104 -44.96073,8.81987 c -24.72841,4.85093 -46.33883,9.15883 -48.02317,9.57312 -2.58935,0.63686 -4.03637,-1.21054 -9.36683,-11.95853 -3.4674,-6.99145 -6.30438,-12.91997 -6.30438,-13.17449 0,-0.25451 13.15102,-4.10737 29.22448,-8.5619 16.07346,-4.45454 29.22448,-8.53278 29.22448,-9.06276 0,-0.52998 -12.1394,-6.90787 -26.97644,-14.17308 -14.83704,-7.26521 -26.97644,-13.53175 -26.97644,-13.92564 0,-0.3939 2.10777,-4.00084 4.68393,-8.01544 4.36922,-6.80885 4.89786,-7.16268 7.86812,-5.26628 11.09115,7.08126 49.14719,28.28606 49.72597,27.70727 0.38576,-0.38575 -2.25092,-12.94544 -5.85927,-27.91041 -5.65673,-23.46019 -6.22694,-27.22702 -4.13859,-27.33954 1.33214,-0.0718 8.28216,-0.5786 15.4445,-1.12628 l 13.02244,-0.99578 15.16911,42.71716 15.16911,42.71716 31.71427,16.02567 c 17.44285,8.81412 32.0703,15.67098 32.50545,15.23747 0.43514,-0.43351 1.00809,-15.68514 1.27321,-33.89249 l 0.48204,-33.1043 -33.04745,-33.09087 -33.04745,-33.09088 8.38707,-10.86551 c 4.61289,-5.97603 8.93655,-10.86551 9.60813,-10.86551 1.08014,0 11.91025,8.77392 38.74845,31.3917 l 8.09842,6.82492 -1.08129,-28.8498 -1.08129,-28.84981 h 9.8853 9.88531 l -0.82491,18.35897 c -0.4537,10.09743 -1.15602,22.95655 -1.56068,28.57583 -0.57468,7.98009 -0.3213,9.9649 1.15741,9.06596 1.04126,-0.633 11.53877,-9.15292 23.32781,-18.93314 11.78903,-9.78023 22.00373,-17.56917 22.69935,-17.30876 0.6956,0.26041 4.99343,5.19435 9.55073,10.96431 l 8.28597,10.49084 -33.02106,33.14592 -33.02109,33.14592 0.23959,33.49815 c 0.13173,18.42398 0.48676,33.74534 0.78889,34.04746 0.62639,0.62639 58.77489,-28.63844 62.65109,-31.53089 1.39618,-1.04184 8.63046,-19.09173 16.07616,-40.11088 7.4457,-21.01914 14.21905,-39.91762 15.05185,-41.99661 l 1.51422,-3.78 14.33811,1.04845 c 7.88595,0.57665 14.68147,1.39182 15.10115,1.81149 0.41967,0.41967 -2.07379,12.65086 -5.54101,27.18042 -3.46722,14.52955 -5.95195,26.76947 -5.5216,27.19982 0.43035,0.43035 12.46985,-5.98762 26.75443,-14.26217 l 25.97196,-15.04462 4.95241,7.79759 4.9524,7.7976 -27.99988,13.65428 c -15.39993,7.50986 -27.40658,13.98071 -26.68144,14.37966 0.72515,0.39896 14.22915,4.35837 30.00888,8.7987 l 28.69042,8.07331 -6.47922,12.9009 -6.47921,12.9009 -47.68897,-9.42013 -47.68895,-9.42013 -31.84719,16.75822 c -17.51595,9.21701 -31.84719,17.21437 -31.84719,17.77191 0,1.15956 58.57888,32.67099 62.77369,33.76796 1.5169,0.39669 23.8387,-3.41057 49.60401,-8.46056 25.7653,-5.04999 47.02328,-8.98235 47.23993,-8.73857 0.21665,0.24378 3.164,5.98035 6.54968,12.74791 l 6.15577,12.30468 -10.10296,2.96922 c -5.55662,1.63306 -18.87031,5.45153 -29.58595,8.48548 -10.71564,3.03395 -19.73622,5.74327 -20.04571,6.02074 -0.30951,0.27745 12.05055,6.57835 27.46681,14.00199 l 28.02954,13.49751 -2.52402,4.27281 c -1.38821,2.35005 -3.6638,5.78387 -5.05687,7.63071 l -2.53285,3.35787 -26.15667,-14.99305 c -14.38617,-8.24618 -26.36033,-14.4175 -26.60923,-13.71404 -0.2489,0.70344 2.36383,13.17336 5.80608,27.7109 3.44224,14.53754 6.00633,26.68109 5.69798,26.98564 -0.30837,0.30455 -7.22865,0.78166 -15.3784,1.06022 l -14.81775,0.50648 -14.98904,-42.09429 -14.98903,-42.09431 -31.87,-16.35464 c -17.52848,-8.99507 -32.24973,-15.98361 -32.71389,-15.5301 -0.46416,0.4535 -0.91447,15.91109 -1.00071,34.35019 l -0.15681,33.52564 32.64488,32.67017 32.64487,32.6702 -3.59197,4.91678 c -1.97559,2.70424 -5.6584,7.75675 -8.18403,11.22779 -2.52562,3.47105 -4.92924,6.33087 -5.34138,6.35516 -0.41214,0.0243 -10.86551,-8.3606 -23.22971,-18.63308 -12.3642,-10.27249 -22.99088,-18.6962 -23.61485,-18.71936 -0.62396,-0.0232 -0.8076,4.51017 -0.40807,10.07406 0.39952,5.56389 1.09762,18.3777 1.55132,28.47513 l 0.82491,18.35897 h -9.88531 -9.8853 z"
       style="fill:#87a1fd;fill-opacity:1;fill-rule:evenodd;stroke:#b3d2ed;stroke-width:12.09448834;stroke-miterlimit:4;stroke-dasharray:12.09448834, 36.28346503000000212;stroke-opacity:1;paint-order:fill markers stroke;stroke-dashoffset:0;filter:url(#filter3943)" />
  </g>
</svg>
